<svg width="24" height="24" viewBox="0 0 24 24" fill="none" xmlns="http://www.w3.org/2000/svg">
<g clip-path="url(#clip0_28_10)">
<path d="M11.0849 15.8783C11.0849 15.8783 11.49 14.263 10.5548 13.1477L11.675 10.4522L17.6462 14.268L18.6014 12.7677L11.765 8.40175L11.63 8.31673L9.28949 7.37154L7.31408 0H5.39868L7.78918 8.92186L6.934 10.9673C6.8302 11.3388 6.77309 11.7219 6.76397 12.1075C6.76397 12.1075 6.35888 15.2382 8.53433 16.9535L6.60893 24.005H8.56934L10.0997 18.4038L15.4408 24.005H18.1763L12.6152 18.1638L11.0849 15.8783Z" fill="#4688F2"/>
<path d="M11.8499 7.70152C12.9519 7.70152 13.8453 6.80815 13.8453 5.70611C13.8453 4.60407 12.9519 3.71069 11.8499 3.71069C10.7479 3.71069 9.85449 4.60407 9.85449 5.70611C9.85449 6.80815 10.7479 7.70152 11.8499 7.70152Z" fill="#4688F2"/>
</g>
<defs>
<clipPath id="clip0_28_10">
<rect width="24" height="24" fill="white"/>
</clipPath>
</defs>
</svg>
