<svg width="24" height="24" viewBox="0 0 24 24" fill="none" xmlns="http://www.w3.org/2000/svg">
<path d="M18.6588 16.7859C18.2416 19.1156 16.2823 20.5969 13.4979 20.925V22.5C13.4979 22.8978 13.3399 23.2794 13.0586 23.5607C12.7773 23.842 12.3957 24 11.9979 24C11.6001 24 11.2185 23.842 10.9372 23.5607C10.6559 23.2794 10.4979 22.8978 10.4979 22.5V20.8594C10.4773 20.8566 10.4585 20.8594 10.4379 20.8547C9.21024 20.6784 7.92118 20.2359 6.78446 19.8455L6.26884 19.6692C5.90278 19.5337 5.60396 19.2608 5.43585 18.9086C5.26773 18.5563 5.24355 18.1524 5.36845 17.7825C5.49335 17.4127 5.75748 17.1062 6.10476 16.928C6.45204 16.7498 6.85511 16.7139 7.22837 16.8281L7.75852 17.0091C8.77055 17.3564 9.91477 17.7502 10.8715 17.887C13.0788 18.2128 15.4212 17.8477 15.7043 16.2891C15.9476 14.9508 15.1812 14.4192 11.6013 13.4437L10.8982 13.2506C8.83805 12.675 4.55649 11.4797 5.3393 7.17188C5.75415 4.87969 7.70508 3.3975 10.4956 3.07078V1.5C10.4956 1.10218 10.6536 0.720644 10.9349 0.43934C11.2162 0.158035 11.5977 0 11.9956 0C12.3934 0 12.7749 0.158035 13.0562 0.43934C13.3375 0.720644 13.4956 1.10218 13.4956 1.5V3.14062C13.5162 3.14344 13.5349 3.14062 13.5556 3.14578C14.3482 3.26437 15.2534 3.49594 16.4018 3.87469C16.5911 3.93448 16.7666 4.03123 16.9182 4.15935C17.0698 4.28746 17.1944 4.44439 17.2849 4.62103C17.3754 4.79768 17.43 4.99053 17.4454 5.1884C17.4608 5.38628 17.4368 5.58526 17.3748 5.77379C17.3128 5.96233 17.214 6.13669 17.0841 6.28675C16.9541 6.43681 16.7958 6.55961 16.6181 6.64801C16.4403 6.73641 16.2469 6.78867 16.0488 6.80175C15.8508 6.81483 15.6521 6.78848 15.4643 6.72422C14.4931 6.405 13.7243 6.20484 13.1131 6.11484C10.9198 5.78437 8.57368 6.15 8.29243 7.71094C8.08571 8.85 8.51509 9.46875 11.7091 10.3594L12.3931 10.5469C15.1995 11.3156 19.4487 12.4734 18.6588 16.7859Z" fill="#4688F2"/>
</svg>
