<svg width="24" height="24" viewBox="0 0 24 24" fill="none" xmlns="http://www.w3.org/2000/svg">
<g clip-path="url(#clip0_28_8)">
<path d="M23.3335 8.94837e-05C23.2631 -0.00238641 23.1929 0.00893744 23.1269 0.0334228L16.0002 2.80009L8.00021 8.94837e-05L0.486878 2.53342C0.342677 2.57375 0.216249 2.66144 0.127965 2.78238C0.0396801 2.90332 -0.00532111 3.05046 0.000211324 3.20009V23.3334C0.000211324 23.5102 0.0704492 23.6798 0.195473 23.8048C0.320498 23.9298 0.490067 24.0001 0.666878 24.0001C0.735124 24.0134 0.805298 24.0134 0.873545 24.0001L8.00021 21.2001L16.0002 24.0001L23.5202 21.4734C23.6632 21.4319 23.7881 21.3436 23.8751 21.2228C23.9621 21.102 24.0061 20.9555 24.0002 20.8068V0.666756C24.0002 0.489945 23.93 0.320376 23.805 0.195352C23.6799 0.0703274 23.5104 8.94837e-05 23.3335 8.94837e-05ZM16.0002 21.3334L8.00021 18.5268V2.66676L16.0002 5.47342V21.3334Z" fill="#4688F2"/>
</g>
<defs>
<clipPath id="clip0_28_8">
<rect width="24" height="24" fill="white"/>
</clipPath>
</defs>
</svg>
