<svg width="24" height="24" viewBox="0 0 24 24" fill="none" xmlns="http://www.w3.org/2000/svg">
<g clip-path="url(#clip0_16_107)">
<path d="M23.9978 11.9992C23.9978 5.37225 18.6255 0 11.9985 0C5.37152 0 -0.000732422 5.37225 -0.000732422 11.9992C-0.000732422 17.988 4.38752 22.9522 10.1235 23.8522V15.4672H7.07702V11.9985H10.1235V9.35475C10.1235 6.34725 11.9153 4.686 14.6558 4.686C15.9683 4.686 17.3415 4.92075 17.3415 4.92075V7.8735H15.8288C14.3385 7.8735 13.8735 8.79825 13.8735 9.747V11.9977H17.2013L16.6695 15.4665H13.8735V23.8515C19.6103 22.9515 23.9978 17.9873 23.9978 11.9985V11.9992Z" fill="white"/>
</g>
<defs>
<clipPath id="clip0_16_107">
<rect width="24" height="24" fill="white"/>
</clipPath>
</defs>
</svg>
