<svg width="24" height="28" viewBox="0 0 24 28" fill="none" xmlns="http://www.w3.org/2000/svg">
<path d="M3.703 22.094H7.312V11.25H3.703V22.094ZM7.547 7.906C7.531 6.844 6.766 6.031 5.531 6.031C4.296 6.031 3.484 6.843 3.484 7.906C3.484 8.937 4.265 9.781 5.484 9.781H5.5C6.766 9.781 7.547 8.937 7.547 7.906ZM16.688 22.094H20.297V15.875C20.297 12.547 18.516 11 16.141 11C14.204 11 13.344 12.078 12.875 12.828H12.906V11.25H9.297C9.297 11.25 9.344 12.266 9.297 22.094H12.906V16.032C12.906 15.719 12.922 15.391 13.015 15.157C13.281 14.516 13.874 13.844 14.874 13.844C16.171 13.844 16.687 14.828 16.687 16.297V22.094H16.688ZM24 6.5V21.5C24 23.984 21.984 26 19.5 26H4.5C2.016 26 0 23.984 0 21.5V6.5C0 4.016 2.016 2 4.5 2H19.5C21.984 2 24 4.016 24 6.5Z" fill="white"/>
</svg>
