<svg width="24" height="24" viewBox="0 0 24 24" fill="none" xmlns="http://www.w3.org/2000/svg">
<path d="M23.3651 5.46431C22.73 6.32145 21.9371 7.08516 21.0288 7.70059C21.0436 7.88831 21.0436 8.07602 21.0436 8.26288C21.0436 13.9817 16.3562 20.5706 7.7891 20.5706C5.15002 20.5706 2.69741 19.8609 0.635254 18.6283C1.01002 18.6686 1.37095 18.6823 1.76048 18.6823C3.93802 18.6823 5.94295 17.9992 7.54448 16.8343C5.49618 16.794 3.78018 15.5486 3.18848 13.8343C3.47741 13.8746 3.76541 13.9012 4.06818 13.9012C4.48633 13.9012 4.90448 13.8472 5.29402 13.7537C3.15987 13.3517 1.55833 11.6109 1.55833 9.50831V9.45431C2.17864 9.77573 2.89956 9.97631 3.66387 10.0037C2.40941 9.22716 1.58695 7.90116 1.58695 6.40116C1.58695 5.59716 1.81772 4.86088 2.22202 4.21802C4.51495 6.84259 7.96264 8.55773 11.8276 8.74459C11.7556 8.42316 11.7122 8.08802 11.7122 7.75373C11.7122 5.37002 13.7891 3.42773 16.3709 3.42773C17.7122 3.42773 18.9242 3.94973 19.7743 4.79402C20.8276 4.60631 21.8365 4.24459 22.7309 3.74916C22.3848 4.75373 21.6491 5.59716 20.6826 6.13288C21.6205 6.03945 22.5288 5.79773 23.3651 5.46345V5.46431Z" fill="white"/>
</svg>
