<svg width="24" height="24" viewBox="0 0 24 24" fill="none" xmlns="http://www.w3.org/2000/svg">
<g clip-path="url(#clip0_75_147)">
<path d="M11.0846 15.8783C11.0846 15.8783 11.4897 14.263 10.5545 13.1477L11.6747 10.4522L17.646 14.268L18.6012 12.7677L11.7648 8.40175L11.6297 8.31673L9.28925 7.37154L7.31384 0H5.39844L7.78894 8.92186L6.93376 10.9673C6.82996 11.3388 6.77284 11.7219 6.76372 12.1075C6.76372 12.1075 6.35864 15.2382 8.53409 16.9535L6.60869 24.005H8.5691L10.0994 18.4038L15.4405 24.005H18.1761L12.6149 18.1638L11.0846 15.8783Z" fill="#4688F2"/>
<path d="M11.8499 7.7016C12.9519 7.7016 13.8453 6.80823 13.8453 5.70619C13.8453 4.60415 12.9519 3.71077 11.8499 3.71077C10.7479 3.71077 9.85449 4.60415 9.85449 5.70619C9.85449 6.80823 10.7479 7.7016 11.8499 7.7016Z" fill="#4688F2"/>
</g>
<defs>
<clipPath id="clip0_75_147">
<rect width="24" height="24" fill="white"/>
</clipPath>
</defs>
</svg>
