<svg width="24" height="24" viewBox="0 0 24 24" fill="none" xmlns="http://www.w3.org/2000/svg">
<path d="M1.2002 4.8C1.2002 4.16348 1.45305 3.55303 1.90314 3.10294C2.35323 2.65286 2.96368 2.4 3.6002 2.4H20.4002C21.0367 2.4 21.6472 2.65286 22.0973 3.10294C22.5473 3.55303 22.8002 4.16348 22.8002 4.8V21.6C22.8002 22.2365 22.5473 22.847 22.0973 23.2971C21.6472 23.7471 21.0367 24 20.4002 24H3.6002C2.96368 24 2.35323 23.7471 1.90314 23.2971C1.45305 22.847 1.2002 22.2365 1.2002 21.6V4.8ZM3.6002 7.2V21.6H20.4002V7.2H3.6002ZM6.0002 0H8.4002V2.4H6.0002V0ZM15.6002 0H18.0002V2.4H15.6002V0ZM6.0002 10.8H8.4002V13.2H6.0002V10.8ZM6.0002 15.6H8.4002V18H6.0002V15.6ZM10.8002 10.8H13.2002V13.2H10.8002V10.8ZM10.8002 15.6H13.2002V18H10.8002V15.6ZM15.6002 10.8H18.0002V13.2H15.6002V10.8ZM15.6002 15.6H18.0002V18H15.6002V15.6Z" fill="#4688F2"/>
</svg>
