<svg width="24" height="24" viewBox="0 0 24 24" fill="none" xmlns="http://www.w3.org/2000/svg">
<path d="M18.6586 16.7859C18.2414 19.1156 16.282 20.5969 13.4977 20.925V22.5C13.4977 22.8978 13.3396 23.2794 13.0583 23.5607C12.777 23.842 12.3955 24 11.9977 24C11.5998 24 11.2183 23.842 10.937 23.5607C10.6557 23.2794 10.4977 22.8978 10.4977 22.5V20.8594C10.477 20.8566 10.4583 20.8594 10.4377 20.8547C9.21 20.6784 7.92093 20.2359 6.78422 19.8455L6.26859 19.6692C5.90253 19.5337 5.60372 19.2608 5.4356 18.9086C5.26748 18.5563 5.24331 18.1524 5.36821 17.7825C5.4931 17.4127 5.75724 17.1062 6.10452 16.928C6.45179 16.7498 6.85486 16.7139 7.22812 16.8281L7.75828 17.0091C8.77031 17.3564 9.91453 17.7502 10.8712 17.887C13.0786 18.2128 15.4209 17.8477 15.7041 16.2891C15.9473 14.9508 15.1809 14.4192 11.6011 13.4437L10.898 13.2506C8.83781 12.675 4.55625 11.4797 5.33906 7.17188C5.7539 4.87969 7.70484 3.3975 10.4953 3.07078V1.5C10.4953 1.10218 10.6533 0.720644 10.9346 0.43934C11.216 0.158035 11.5975 0 11.9953 0C12.3931 0 12.7747 0.158035 13.056 0.43934C13.3373 0.720644 13.4953 1.10218 13.4953 1.5V3.14062C13.5159 3.14344 13.5347 3.14062 13.5553 3.14578C14.348 3.26437 15.2531 3.49594 16.4016 3.87469C16.5908 3.93448 16.7663 4.03123 16.9179 4.15935C17.0695 4.28746 17.1942 4.44439 17.2847 4.62103C17.3752 4.79768 17.4297 4.99053 17.4452 5.1884C17.4606 5.38628 17.4366 5.58526 17.3746 5.77379C17.3125 5.96233 17.2137 6.13669 17.0838 6.28675C16.9539 6.43681 16.7955 6.55961 16.6178 6.64801C16.4401 6.73641 16.2466 6.78867 16.0486 6.80175C15.8505 6.81483 15.6518 6.78848 15.4641 6.72422C14.4928 6.405 13.7241 6.20484 13.1128 6.11484C10.9195 5.78437 8.57343 6.15 8.29218 7.71094C8.08547 8.85 8.51484 9.46875 11.7089 10.3594L12.3928 10.5469C15.1992 11.3156 19.4484 12.4734 18.6586 16.7859Z" fill="#4688F2"/>
</svg>
