<svg width="24" height="24" viewBox="0 0 24 24" fill="none" xmlns="http://www.w3.org/2000/svg">
<g clip-path="url(#clip0_75_144)">
<path d="M23.3333 0.000127631C23.2629 -0.00234827 23.1927 0.00897558 23.1266 0.033461L16 2.80013L7.99997 0.000127631L0.486634 2.53346C0.342433 2.57379 0.216005 2.66148 0.127721 2.78242C0.039436 2.90336 -0.00556525 3.0505 -3.28167e-05 3.20013V23.3335C-3.28167e-05 23.5103 0.0702051 23.6798 0.195229 23.8049C0.320254 23.9299 0.489823 24.0001 0.666634 24.0001C0.73488 24.0134 0.805054 24.0134 0.8733 24.0001L7.99997 21.2001L16 24.0001L23.52 21.4735C23.6629 21.4319 23.7879 21.3437 23.8749 21.2228C23.9618 21.102 24.0059 20.9556 24 20.8068V0.666794C24 0.489983 23.9297 0.320414 23.8047 0.19539C23.6797 0.0703655 23.5101 0.000127631 23.3333 0.000127631ZM16 21.3335L7.99997 18.5268V2.66679L16 5.47346V21.3335Z" fill="#4688F2"/>
</g>
<defs>
<clipPath id="clip0_75_144">
<rect width="24" height="24" fill="white"/>
</clipPath>
</defs>
</svg>
