<svg width="267" height="47" viewBox="0 0 267 47" fill="none" xmlns="http://www.w3.org/2000/svg">
<g clip-path="url(#clip0_905_5)">
<path d="M65.6881 10.454V35.8548H59.8027V10.454H65.6881ZM63.836 10.454H76.6661V15.4962H63.836V10.454ZM63.836 19.9957H75.953V25.0033H63.836V19.9957ZM63.836 30.8092H76.6661V35.8548H63.836V30.8092Z" fill="#192945"/>
<path d="M103.275 10.454L95.2778 22.8641L103.784 35.8548H96.1883L91.5354 27.4362L86.737 35.8548H79.176L87.8622 22.8641L80.0831 10.454H87.6441L91.6081 17.8185L95.6794 10.454H103.275Z" fill="#192945"/>
<path d="M110.673 26.2647C111.058 27.1499 111.621 27.9464 112.328 28.6043C113.027 29.2575 113.852 29.763 114.751 30.0904C115.699 30.4335 116.7 30.6032 117.708 30.5915C118.793 30.6112 119.874 30.4524 120.907 30.1215C121.78 29.8313 122.605 29.4157 123.358 28.8877C124.052 28.3997 124.692 27.8402 125.269 27.2185V33.8953C124.247 34.6469 123.128 35.2572 121.942 35.7096C120.464 36.214 118.906 36.4482 117.345 36.4008C115.423 36.426 113.513 36.1004 111.708 35.4401C110.071 34.8369 108.566 33.9253 107.274 32.7549C106.009 31.5987 105.02 30.173 104.383 28.5836C103.7 26.8557 103.362 25.0116 103.386 23.1544C103.362 21.2984 103.701 19.4555 104.383 17.7287C105.024 16.135 106.011 14.7032 107.274 13.5367C108.563 12.3586 110.069 11.4409 111.708 10.8342C113.519 10.1734 115.435 9.84787 117.362 9.87346C118.922 9.82709 120.478 10.054 121.959 10.5439C123.158 10.9924 124.28 11.6231 125.286 12.4135V19.0903C124.71 18.4686 124.069 17.9092 123.375 17.4211C122.623 16.8931 121.797 16.4775 120.924 16.1874C119.886 15.8532 118.799 15.6932 117.708 15.7139C116.704 15.7073 115.706 15.8793 114.762 16.2219C113.863 16.5531 113.039 17.0594 112.338 17.7114C111.629 18.3664 111.062 19.1605 110.673 20.0441C110.263 21.0287 110.065 22.0884 110.092 23.1544C110.065 24.2204 110.263 25.2801 110.673 26.2647Z" fill="#192945"/>
<path d="M136.209 10.454V27.0734C136.19 27.8554 136.353 28.6312 136.683 29.3404C136.981 29.9636 137.454 30.487 138.044 30.8472C138.749 31.2369 139.548 31.4246 140.353 31.3898C141.134 31.4191 141.909 31.2312 142.589 30.8472C143.177 30.4895 143.645 29.9649 143.933 29.3404C144.252 28.6282 144.409 27.8536 144.39 27.0734V10.454H150.531V27.5088C150.564 28.9306 150.298 30.3435 149.749 31.6559C149.258 32.7908 148.512 33.7973 147.568 34.5968C146.608 35.3911 145.494 35.9793 144.296 36.3248C141.677 37.0713 138.901 37.0713 136.282 36.3248C135.091 35.9754 133.983 35.3875 133.027 34.5968C132.087 33.8006 131.346 32.7958 130.864 31.6628C130.327 30.3472 130.067 28.9358 130.099 27.5157V10.454H136.209Z" fill="#192945"/>
<path d="M161.873 10.454V35.8548H155.766V10.454H161.873ZM159.584 10.454H164.999C167.18 10.454 169.003 10.7996 170.469 11.4908C171.845 12.1174 173.003 13.1403 173.793 14.4283C174.562 15.7412 174.953 17.2411 174.921 18.762C174.948 20.2778 174.557 21.7719 173.793 23.0818C173.002 24.3753 171.844 25.4049 170.466 26.0401C169.002 26.752 167.179 27.1079 164.996 27.1079H159.598V22.2697H164.577C165.31 22.2862 166.04 22.1569 166.723 21.8896C167.286 21.6694 167.763 21.2744 168.084 20.7629C168.402 20.2185 168.56 19.5958 168.541 18.9659C168.561 18.3424 168.402 17.7261 168.084 17.1896C167.755 16.6852 167.28 16.2923 166.723 16.0629C166.043 15.7833 165.312 15.648 164.577 15.6655H159.598L159.584 10.454ZM168.489 24.3501L176.451 35.8548H169.216L162.091 24.3501H168.489Z" fill="#192945"/>
<path d="M183.791 29.3231C184.378 29.9689 185.083 30.4977 185.868 30.8818C186.624 31.244 187.453 31.4307 188.291 31.4278C188.84 31.4384 189.385 31.3336 189.891 31.1202C190.323 30.9365 190.695 30.6346 190.964 30.2493C191.224 29.8563 191.357 29.3931 191.345 28.9223C191.368 28.362 191.195 27.811 190.857 27.3637C190.415 26.8693 189.868 26.4786 189.257 26.2198C188.516 25.8696 187.529 25.4526 186.294 24.9687C185.668 24.7268 184.963 24.4123 184.179 24.0253C183.376 23.6212 182.631 23.1147 181.959 22.5185C181.247 21.8893 180.651 21.1408 180.197 20.3068C179.703 19.3228 179.465 18.2306 179.505 17.1308C179.465 15.7364 179.88 14.367 180.689 13.2291C181.514 12.1235 182.626 11.2643 183.905 10.7443C185.32 10.1522 186.841 9.85582 188.374 9.87344C189.894 9.83686 191.405 10.1231 192.806 10.7132C193.96 11.2147 195.008 11.9287 195.897 12.8179C196.655 13.5761 197.293 14.4455 197.788 15.3959L193.097 18.0086C192.768 17.4172 192.351 16.8789 191.861 16.412C191.405 15.9694 190.869 15.6175 190.282 15.3752C189.71 15.144 189.099 15.0266 188.482 15.0296C187.968 15.0152 187.457 15.0948 186.972 15.2646C186.614 15.3916 186.303 15.6257 186.083 15.9351C185.886 16.237 185.785 16.591 185.792 16.9511C185.785 17.3869 185.918 17.8134 186.173 18.1676C186.467 18.5537 186.838 18.8749 187.263 19.111C187.829 19.4327 188.418 19.7111 189.025 19.9439C189.718 20.2204 190.506 20.5037 191.39 20.794C192.261 21.1229 193.106 21.518 193.917 21.9759C194.687 22.4064 195.387 22.9505 195.994 23.5898C196.71 24.3493 197.256 25.2512 197.597 26.2363C197.938 27.2214 198.067 28.2675 197.974 29.3058C197.882 30.344 197.57 31.351 197.06 32.2605C196.55 33.1701 195.853 33.9616 195.015 34.583C194.097 35.2658 193.071 35.7881 191.978 36.1278C190.849 36.4797 189.672 36.6568 188.489 36.6531C185.403 36.6761 182.431 35.4985 180.201 33.37C179.187 32.4055 178.372 31.2527 177.802 29.9763L182.101 26.9282C182.565 27.7919 183.133 28.5961 183.791 29.3231Z" fill="#192945"/>
<path d="M208.257 10.454V35.8548H202.025V10.454H208.257Z" fill="#192945"/>
<path d="M213.235 17.7667C213.887 16.1721 214.866 14.7313 216.109 13.5367C217.362 12.3428 218.846 11.4173 220.471 10.8169C222.216 10.1751 224.064 9.85544 225.923 9.87344C227.777 9.85417 229.618 10.1739 231.355 10.8169C232.969 11.4178 234.442 12.3435 235.683 13.5367C236.919 14.7406 237.902 16.1787 238.574 17.7667C239.286 19.4727 239.639 21.3065 239.612 23.1544C239.633 25.0054 239.287 26.8423 238.594 28.5594C237.946 30.1636 236.973 31.6175 235.738 32.8309C234.493 34.0488 233.015 35.0053 231.393 35.644C229.651 36.325 227.794 36.6642 225.923 36.6427C224.03 36.6675 222.149 36.3284 220.384 35.644C218.758 35.0081 217.276 34.0513 216.029 32.8309C214.79 31.6205 213.824 30.1609 213.194 28.549C212.529 26.8288 212.199 24.998 212.221 23.1544C212.198 21.3091 212.543 19.4777 213.235 17.7667ZM219.197 26.2025C219.508 27.0973 220.003 27.9175 220.65 28.6107C221.297 29.304 222.081 29.855 222.953 30.2286C223.889 30.6277 224.899 30.8256 225.916 30.8092C226.916 30.8243 227.908 30.6264 228.825 30.2286C229.678 29.8568 230.445 29.3132 231.078 28.632C231.723 27.9328 232.218 27.1096 232.532 26.2129C232.882 25.2314 233.057 24.1962 233.048 23.1544C233.059 22.1136 232.899 21.0781 232.574 20.089C232.281 19.1907 231.798 18.3657 231.158 17.6699C230.518 16.9872 229.744 16.4437 228.883 16.0733C226.985 15.2991 224.858 15.2991 222.96 16.0733C222.092 16.4457 221.31 16.9922 220.663 17.6789C220.016 18.3655 219.517 19.1776 219.197 20.0648C218.518 22.0535 218.518 24.2104 219.197 26.199V26.2025Z" fill="#192945"/>
<path d="M267 10.454V37.1231L249.406 21.6304V35.8548H243.521V9.18228L261.035 24.6785V10.454H267Z" fill="#192945"/>
<path d="M23.5416 47C36.5433 47 47.0832 36.4787 47.0832 23.5C47.0832 10.5213 36.5433 0 23.5416 0C10.5399 0 0 10.5213 0 23.5C0 36.4787 10.5399 47 23.5416 47Z" fill="#4688F2"/>
<path d="M14.6168 16.5882C14.6869 16.5881 14.7564 16.574 14.821 16.5468L15.2988 16.3532C15.42 16.2957 15.5148 16.1944 15.564 16.0697C15.6133 15.9451 15.6133 15.8064 15.564 15.6818C15.5148 15.5571 15.42 15.4558 15.2988 15.3982C15.1776 15.3407 15.039 15.3312 14.911 15.3718L14.3814 15.5757C14.2682 15.6252 14.1758 15.7126 14.1204 15.8229C14.065 15.9332 14.05 16.0593 14.0779 16.1795C14.1059 16.2997 14.175 16.4063 14.2734 16.481C14.3718 16.5556 14.4933 16.5936 14.6168 16.5882Z" fill="white"/>
<path d="M9.99485 19.3288C10.1104 19.3323 10.2238 19.297 10.3168 19.2285C10.5453 19.0488 10.7773 18.883 11.0092 18.6998C11.066 18.659 11.1143 18.6073 11.1511 18.5479C11.188 18.4884 11.2127 18.4223 11.224 18.3533C11.2352 18.2843 11.2327 18.2138 11.2167 18.1458C11.2006 18.0777 11.1713 18.0135 11.1304 17.9568C11.0895 17.9001 11.0378 17.8519 10.9782 17.8151C10.9187 17.7784 10.8524 17.7537 10.7833 17.7424C10.7142 17.7312 10.6435 17.7337 10.5754 17.7497C10.5072 17.7657 10.4429 17.795 10.3861 17.8358L9.65211 18.3611C9.59702 18.4037 9.55089 18.4567 9.51636 18.5172C9.48183 18.5776 9.45959 18.6442 9.45091 18.7133C9.44222 18.7823 9.44727 18.8523 9.46576 18.9194C9.48424 18.9865 9.51581 19.0493 9.55864 19.1041C9.60898 19.1678 9.67315 19.2193 9.74632 19.2546C9.81948 19.2899 9.89973 19.3082 9.98101 19.308L9.99485 19.3288Z" fill="white"/>
<path d="M12.2141 17.8082C12.3091 17.8091 12.4025 17.784 12.4841 17.7356C12.7334 17.587 12.9896 17.4453 13.2458 17.3071C13.3092 17.2785 13.3664 17.2377 13.414 17.187C13.4616 17.1364 13.4988 17.0769 13.5234 17.0119C13.548 16.9469 13.5595 16.8777 13.5573 16.8083C13.5551 16.7389 13.5393 16.6706 13.5106 16.6072C13.482 16.5439 13.4411 16.4869 13.3904 16.4393C13.3397 16.3918 13.28 16.3547 13.2149 16.3301C13.1498 16.3056 13.0805 16.2941 13.011 16.2963C12.9414 16.2984 12.873 16.3143 12.8096 16.3429L12.7438 16.3774C12.4737 16.5226 12.2072 16.6712 11.9406 16.8267C11.823 16.9008 11.7393 17.018 11.7076 17.1532C11.6759 17.2883 11.6986 17.4305 11.771 17.549C11.816 17.6268 11.8805 17.6916 11.9582 17.7371C12.0359 17.7825 12.1241 17.807 12.2141 17.8082Z" fill="white"/>
<path d="M8.23274 20.8701C8.36905 20.8748 8.50186 20.8264 8.60317 20.7353L8.97361 20.3897C9.02914 20.3424 9.07421 20.2842 9.10597 20.2186C9.13773 20.153 9.15547 20.0815 9.15808 20.0087C9.16068 19.9359 9.14809 19.8634 9.1211 19.7957C9.09411 19.728 9.05331 19.6667 9.0013 19.6156C8.9048 19.5144 8.77228 19.4551 8.63237 19.4506C8.49246 19.446 8.35638 19.4966 8.25351 19.5914L7.85884 19.9681C7.78502 20.042 7.73478 20.1361 7.71445 20.2385C7.69412 20.3409 7.70461 20.447 7.74459 20.5435C7.78458 20.64 7.85227 20.7224 7.93914 20.7806C8.02601 20.8387 8.12816 20.8698 8.23274 20.8701Z" fill="white"/>
<path d="M36.3997 20.7353C36.5011 20.8244 36.6328 20.8715 36.7678 20.8669C36.9028 20.8624 37.031 20.8065 37.1261 20.7106C37.2212 20.6148 37.276 20.4864 37.2793 20.3516C37.2827 20.2167 37.2343 20.0857 37.1441 19.9854L36.7528 19.6087C36.65 19.5139 36.5139 19.4633 36.374 19.4678C36.2341 19.4724 36.1016 19.5316 36.0051 19.6329C35.9572 19.6833 35.9198 19.7427 35.8951 19.8076C35.8704 19.8725 35.8589 19.9417 35.8611 20.0111C35.8634 20.0806 35.8794 20.1489 35.9083 20.2121C35.9371 20.2753 35.9783 20.3321 36.0293 20.3793L36.3997 20.7353Z" fill="white"/>
<path d="M34.6998 19.2285C34.81 19.3156 34.9503 19.3554 35.0899 19.3392C35.2295 19.323 35.3569 19.2521 35.4442 19.1421C35.5314 19.0321 35.5713 18.8921 35.555 18.7527C35.5388 18.6134 35.4678 18.4862 35.3576 18.3991C35.1153 18.209 34.8729 18.0328 34.6202 17.8704C34.5682 17.8106 34.5035 17.7633 34.4307 17.7319C34.358 17.7005 34.2791 17.6858 34.1999 17.6888C34.1207 17.6919 34.0432 17.7126 33.9731 17.7495C33.903 17.7865 33.8421 17.8386 33.7949 17.9022C33.7477 17.9657 33.7154 18.039 33.7003 18.1167C33.6853 18.1944 33.6879 18.2745 33.7079 18.351C33.728 18.4275 33.765 18.4986 33.8162 18.559C33.8675 18.6193 33.9316 18.6675 34.004 18.6998C34.2394 18.8657 34.4713 19.0419 34.6998 19.2285Z" fill="white"/>
<path d="M31.7778 17.314C32.034 17.4487 32.2867 17.5904 32.5395 17.739C32.6587 17.7952 32.7947 17.8046 32.9205 17.7654C33.0464 17.7262 33.1529 17.6413 33.219 17.5275C33.2852 17.4137 33.3061 17.2792 33.2777 17.1507C33.2493 17.0222 33.1737 16.9091 33.0657 16.8336C32.8026 16.6781 32.536 16.5295 32.2625 16.3843C32.1439 16.3195 32.005 16.3023 31.8742 16.3364C31.7434 16.3705 31.6306 16.4532 31.5589 16.5676C31.4872 16.6821 31.462 16.8195 31.4886 16.9518C31.5151 17.0842 31.5914 17.2014 31.7017 17.2794L31.7674 17.314H31.7778Z" fill="white"/>
<path d="M29.7146 16.3636L30.1923 16.5571C30.317 16.6044 30.455 16.6029 30.5787 16.5531C30.7024 16.5032 30.8026 16.4086 30.8595 16.2881C30.9163 16.1676 30.9255 16.0302 30.8853 15.9033C30.845 15.7763 30.7583 15.6692 30.6424 15.6033H30.6043L30.1196 15.3821C29.9917 15.3416 29.8531 15.3511 29.7319 15.4086C29.6107 15.4662 29.5159 15.5675 29.4666 15.6921C29.4174 15.8168 29.4174 15.9554 29.4666 16.0801C29.5159 16.2047 29.6107 16.3061 29.7319 16.3636H29.7146Z" fill="white"/>
<path d="M22.5031 22.9229C19.5168 22.9203 16.5674 23.5814 13.8689 24.8582C13.5504 25.0068 13.2388 25.1727 12.9307 25.3351H12.8995L12.7645 25.4146C12.4772 25.5735 12.1967 25.736 11.9163 25.9053L11.8575 25.9433L11.9059 25.9157C11.3416 26.2613 10.8016 26.6379 10.2788 27.0354L9.89105 27.3291L9.40637 27.73C9.2402 27.8613 9.09479 27.9961 8.939 28.1309L8.67243 28.3797L8.70359 28.3486L8.25353 28.7702H8.22583C8.05414 28.9461 7.91921 29.1543 7.82887 29.3827C7.73853 29.6111 7.69459 29.8552 7.6996 30.1007V32.2745C7.74961 32.1832 7.80753 32.0965 7.8727 32.0153C9.44122 30.1623 11.3303 28.6055 13.45 27.419C14.0134 27.1127 14.6616 26.9986 15.2959 27.0941C15.9303 27.1895 16.516 27.4893 16.9639 27.9477C18.518 29.5093 19.3893 31.6216 19.3873 33.8227V34.1441C19.3821 34.3313 19.415 34.5175 19.484 34.6916C19.5531 34.8656 19.6568 35.0239 19.7889 35.1567C19.9812 35.334 20.1218 35.5601 20.1955 35.8108C20.2693 36.0615 20.2735 36.3276 20.2078 36.5805C20.1849 36.702 20.1866 36.8269 20.2126 36.9478C20.2387 37.0687 20.2886 37.1831 20.3596 37.2845C20.4305 37.3859 20.521 37.4721 20.6257 37.5382C20.7304 37.6042 20.8473 37.6487 20.9695 37.6691C21.0316 37.6759 21.0943 37.6759 21.1564 37.6691H29.1986C29.433 37.6757 29.6607 37.5905 29.8328 37.4315C30.0049 37.2726 30.1079 37.0527 30.1195 36.819C30.1248 36.7615 30.1248 36.7037 30.1195 36.6462C30.085 36.4825 30.0676 36.3158 30.0676 36.1485V35.8029C30.069 35.4902 30.0085 35.1802 29.8897 34.8909C29.7709 34.6015 29.5961 34.3383 29.3752 34.1165L28.6066 33.3493C28.3796 33.1097 28.1074 32.9173 27.8055 32.7833C27.5037 32.6492 27.1782 32.5761 26.8479 32.5682C26.5318 32.5717 26.218 32.5124 25.925 32.3937C25.632 32.2751 25.3656 32.0994 25.1412 31.8771L23.1955 29.9521C22.7506 29.5047 22.5016 28.8995 22.5031 28.2691C22.5013 27.8831 22.5757 27.5005 22.7222 27.1431C22.8686 26.7858 23.0841 26.4608 23.3564 26.1867C23.6288 25.9126 23.9526 25.6948 24.3093 25.5457C24.666 25.3966 25.0487 25.3192 25.4354 25.3178C25.6531 25.3184 25.87 25.3415 26.0828 25.3869H26.1659C29.181 25.9969 31.9885 27.3702 34.3189 29.375C35.4216 30.2781 36.4254 31.2952 37.3136 32.4093V30.1215C37.321 29.6243 37.1305 29.1446 36.7839 28.7875C32.9908 25.02 27.854 22.9105 22.5031 22.9229Z" fill="white"/>
<path d="M17.1647 17.625C17.2129 17.6249 17.2604 17.6132 17.3032 17.591C17.346 17.5687 17.3828 17.5365 17.4105 17.4971L18.3487 16.1632C18.3901 16.1042 18.45 16.0607 18.519 16.0394C18.5879 16.0181 18.662 16.0203 18.7295 16.0457L18.9372 16.1182C19.7474 16.4147 20.6017 16.5736 21.4645 16.5882C21.4756 16.5889 21.4862 16.5934 21.4944 16.601C21.5026 16.6085 21.5079 16.6187 21.5095 16.6297L21.011 21.4507C21.0032 21.5213 21.0206 21.5924 21.0603 21.6514C21.1 21.7103 21.1594 21.7534 21.2278 21.7728C21.2963 21.7923 21.3694 21.7869 21.4343 21.7577C21.4992 21.7284 21.5515 21.6772 21.5822 21.6131L24.0956 16.5882H26.3113C26.8705 16.589 27.4191 16.436 27.8969 16.1459C28.0548 16.0524 28.169 15.9001 28.2145 15.7225C28.2599 15.545 28.2329 15.3566 28.1392 15.199C28.08 15.0993 27.9967 15.0162 27.8969 14.9571C27.4191 14.667 26.8705 14.5139 26.3113 14.5147H24.0956L21.5683 9.46912C21.5333 9.39778 21.4714 9.3432 21.3961 9.3173C21.3209 9.29139 21.2384 9.29628 21.1668 9.33089C21.1103 9.35673 21.0635 9.39973 21.033 9.45373C21.0026 9.50774 20.99 9.56998 20.9971 9.63155L21.4645 14.4456C21.463 14.4528 21.4597 14.4594 21.4548 14.4649C21.45 14.4703 21.4437 14.4744 21.4368 14.4767C20.5889 14.4931 19.7494 14.6472 18.9511 14.9329L18.7468 15.0054C18.6793 15.0278 18.6065 15.0288 18.5384 15.0084C18.4702 14.988 18.41 14.9472 18.366 14.8914L17.4139 13.5643C17.3563 13.5076 17.2786 13.4757 17.1976 13.4757C17.1166 13.4757 17.0388 13.5076 16.9812 13.5643C16.9457 13.5968 16.9183 13.6372 16.9015 13.6823C16.8846 13.7274 16.8787 13.7758 16.8843 13.8235L17.2028 15.5307L16.8843 17.2587C16.863 17.337 16.8736 17.4206 16.9138 17.4912C16.954 17.5617 17.0206 17.6136 17.0989 17.6354L17.1647 17.625Z" fill="white"/>
</g>
<defs>
<clipPath id="clip0_905_5">
<rect width="267" height="47" fill="white"/>
</clipPath>
</defs>
</svg>
